<svg width="24" height="24" viewBox="0 0 24 24" fill="none" xmlns="http://www.w3.org/2000/svg">
<path d="M15.3281 4.47656C15.4688 4.61719 15.5391 4.79687 15.5391 5.01562C15.5391 5.21875 15.4688 5.39062 15.3281 5.53125L8.85938 12L15.3281 18.4688C15.4688 18.6094 15.5391 18.7891 15.5391 19.0078C15.5391 19.2109 15.4688 19.3828 15.3281 19.5234C15.1719 19.6797 14.9922 19.7578 14.7891 19.7578C14.5859 19.7578 14.4141 19.6797 14.2734 19.5234L7.61719 12.8906C7.36719 12.6406 7.24219 12.3438 7.24219 12C7.24219 11.6562 7.36719 11.3594 7.61719 11.1094L14.2734 4.47656C14.4141 4.32031 14.5859 4.24219 14.7891 4.24219C14.9922 4.24219 15.1719 4.32031 15.3281 4.47656Z" fill="black"/>
</svg>
