<svg width="24" height="24" viewBox="0 0 24 24" fill="none" xmlns="http://www.w3.org/2000/svg">
<path d="M8.67188 4.47656C8.53125 4.61719 8.46094 4.79687 8.46094 5.01562C8.46094 5.21875 8.53125 5.39062 8.67188 5.53125L15.1406 12L8.67188 18.4688C8.53125 18.6094 8.46094 18.7891 8.46094 19.0078C8.46094 19.2109 8.53125 19.3828 8.67188 19.5234C8.82812 19.6797 9.00781 19.7578 9.21094 19.7578C9.41406 19.7578 9.58594 19.6797 9.72656 19.5234L16.3828 12.8906C16.6328 12.6406 16.7578 12.3438 16.7578 12C16.7578 11.6562 16.6328 11.3594 16.3828 11.1094L9.72656 4.47656C9.58594 4.32031 9.41406 4.24219 9.21094 4.24219C9.00781 4.24219 8.82812 4.32031 8.67188 4.47656Z" fill="black"/>
</svg>
