<svg width="30" height="30" viewBox="0 0 30 30" fill="none" xmlns="http://www.w3.org/2000/svg">
<path d="M14.9968 16.2506V26.2506M14.9968 16.2506L9.99676 21.2506M14.9968 16.2506L19.9968 21.2506M4.99676 18.6243C4.06806 17.6755 3.36747 16.5277 2.94805 15.268C2.52864 14.0083 2.40139 12.6696 2.57596 11.3535C2.75053 10.0373 3.22233 8.77808 3.95563 7.67124C4.68893 6.56441 5.66449 5.63897 6.80843 4.96501C7.95236 4.29106 9.23467 3.88627 10.5582 3.7813C11.8818 3.67633 13.2119 3.87393 14.4477 4.35915C15.6836 4.84436 16.7928 5.60446 17.6914 6.58187C18.59 7.55928 19.2544 8.72836 19.6343 10.0006H21.8718C23.0787 10.0004 24.2536 10.3885 25.223 11.1074C26.1924 11.8263 26.9049 12.8379 27.2552 13.9928C27.6055 15.1478 27.5751 16.3847 27.1684 17.521C26.7617 18.6573 26.0004 19.6327 24.9968 20.3031" stroke="#666666" stroke-width="2" stroke-linecap="round" stroke-linejoin="round"/>
</svg>
